<svg xmlns="http://www.w3.org/2000/svg" viewBox="0 0 900 420" role="img" aria-labelledby="title desc">
  <title id="title">Whitham Academy wave mark</title>
  <desc id="desc">A stylized layered wave in shades of blue, extracted as a standalone SVG mark.</desc>

  <defs>
    <linearGradient id="navy" x1="0%" y1="50%" x2="100%" y2="50%">
      <stop offset="0%" stop-color="#062f5c"/>
      <stop offset="100%" stop-color="#0a4f8a"/>
    </linearGradient>

    <linearGradient id="blue" x1="0%" y1="50%" x2="100%" y2="50%">
      <stop offset="0%" stop-color="#0e5fa8"/>
      <stop offset="100%" stop-color="#18a4e6"/>
    </linearGradient>

    <linearGradient id="light" x1="0%" y1="50%" x2="100%" y2="50%">
      <stop offset="0%" stop-color="#eef9ff"/>
      <stop offset="100%" stop-color="#ffffff"/>
    </linearGradient>

    <linearGradient id="mid" x1="0%" y1="50%" x2="100%" y2="50%">
      <stop offset="0%" stop-color="#1f87d0"/>
      <stop offset="100%" stop-color="#7ad8ff"/>
    </linearGradient>
  </defs>

  <g transform="translate(40,20)">
    <path fill="url(#navy)" d="
      M40,275
      C125,305 210,292 285,240
      C330,208 364,164 412,124
      C471,75 542,55 622,65
      C696,75 746,111 782,158
      C814,200 820,249 792,281
      C760,318 699,322 652,300
      C609,280 583,240 582,198
      C580,166 597,142 626,133
      C653,124 684,133 704,155
      C680,130 642,120 611,127
      C570,136 541,170 535,216
      C528,269 557,316 615,350
      C503,335 410,294 324,286
      C221,276 132,319 40,275
      Z"/>
    
    <path fill="url(#blue)" d="
      M62,247
      C139,276 214,261 284,214
      C332,182 367,137 418,100
      C477,57 543,43 617,52
      C682,60 728,91 760,132
      C788,169 796,212 779,239
      C750,215 715,202 675,203
      C626,204 589,228 555,268
      C523,307 484,332 432,336
      C338,343 273,268 180,260
      C138,257 100,260 62,247
      Z"/>
    
    <path fill="url(#light)" d="
      M96,218
      C174,237 243,213 307,171
      C355,140 390,95 442,65
      C495,34 556,24 618,31
      C674,37 716,59 750,96
      C777,126 789,163 781,194
      C758,164 725,146 684,142
      C634,137 591,154 552,182
      C513,211 479,246 439,269
      C389,298 327,304 275,280
      C218,255 166,220 96,218
      Z"/>
    
    <path fill="url(#mid)" d="
      M70,283
      C153,311 232,300 304,253
      C352,222 387,179 435,138
      C498,84 570,65 643,79
      C677,86 706,101 730,124
      C683,103 631,101 590,117
      C543,135 508,172 476,216
      C450,251 420,286 380,311
      C328,345 261,352 206,336
      C149,319 109,293 70,283
      Z" opacity="0.95"/>
    
    <path fill="url(#navy)" d="
      M525,211
      C546,179 571,152 603,138
      C644,120 692,128 721,162
      C739,183 744,212 734,236
      C725,257 708,274 689,283
      C704,261 710,242 705,220
      C700,197 683,179 661,170
      C633,159 603,168 580,191
      C559,211 544,238 533,269
      C524,293 514,313 496,329
      C474,348 441,357 409,350
      C462,332 500,292 525,211
      Z"/>
    
    <path fill="url(#light)" d="
      M651,120
      C685,126 711,142 729,166
      C746,189 752,217 744,240
      C757,225 766,203 765,181
      C764,151 746,123 716,103
      C690,85 658,76 622,77
      C650,85 670,99 651,120
      Z"/>
  </g>
</svg>