<svg width="264" height="205" viewBox="0 0 264 205" fill="none" xmlns="http://www.w3.org/2000/svg">
<path d="M75.8457 4.08691C76.3971 4.08719 76.6729 4.63902 76.6729 5.74219C76.6728 6.84508 76.3971 7.3962 75.8457 7.39648C65.9147 7.39648 60.9492 11.4432 60.9492 19.5352C60.9493 22.8454 61.7766 26.983 63.4316 31.9482L91.6074 115.784C91.2243 116.444 90.8423 117.108 90.4639 117.775C86.871 124.112 79.2635 134.035 68.9453 142.961L29.501 26.9834C26.7424 19.0755 23.8917 13.8335 20.9492 11.2588C18.0067 8.6841 13.8684 7.3965 8.53516 7.39648C7.9835 7.39648 7.7071 6.84536 7.70703 5.74219C7.70703 4.63874 7.98343 4.08691 8.53516 4.08691C11.2937 4.08692 13.2247 4.17841 14.3281 4.3623C18.0063 4.73011 22.7879 4.91406 28.6729 4.91406C41.7302 4.91406 53.7762 4.73011 64.8105 4.3623C67.937 4.1784 71.6158 4.08691 75.8457 4.08691ZM136.811 3.25879C138.65 3.25879 139.661 3.53519 139.845 4.08691L169.149 72.6602C160.038 70.974 149.451 71.2907 138.436 75.0322C138.067 75.1574 137.702 75.2841 137.339 75.4121L126.716 50.3789L114.908 87.4209C110.54 90.8148 106.763 94.5612 103.378 98.5898L133.5 4.08691C134.052 3.5352 135.155 3.2588 136.811 3.25879Z" fill="black"/>
<path d="M63.6766 175.078C22.3882 189.389 8.38833 164.957 1.48726 152.706C44.5383 183.877 85.7926 138.555 95.5073 121.422C105.222 104.288 116.39 89.7155 140.15 81.6448C163.91 73.5741 185.532 82.6223 192.87 92.3323C200.209 102.042 199.719 108.941 199.066 111.852C178.536 96.1742 148.493 124.861 172.192 152.497C195.892 180.133 230.529 166.522 246.531 158.18C223.218 188.454 159.735 187.099 146.507 150.439C133.28 113.779 160.336 101.262 174.599 97.0401C115.365 80.9226 104.965 160.768 63.6766 175.078Z" fill="#153E61"/>
<path d="M106.949 174.594C80.7415 207.566 44.7535 196.109 28.8822 188.336C72.9799 192.797 95.2157 171.325 111.53 147.724C127.844 124.123 138.026 117.603 142.622 115.059C117.999 147.462 133.156 141.623 106.949 174.594Z" fill="#153E61"/>
<path d="M115.41 194.319C107.609 201.747 94.9277 203.101 89.0205 203.366C89.9702 202.776 108.673 192.506 114.92 184.402C121.166 176.299 125.186 170.9 134.148 170.072C143.11 169.244 145.279 175.902 164.724 186.117C184.17 196.331 194.571 193.612 204.528 192.692C179.291 207.577 151.209 197.117 141.373 188.485C131.537 179.854 123.211 186.892 115.41 194.319Z" fill="#153E61"/>
<path d="M214.569 6.3615C223.764 6.72929 231.12 6.91412 236.637 6.91414C240.315 6.91414 244.546 6.72996 249.328 6.36216L261.19 6.08683C261.557 6.08711 261.741 6.63849 261.741 7.74138C261.741 8.84446 261.557 9.39572 261.189 9.39581C254.201 9.39588 247.489 12.3391 241.052 18.2238C234.616 23.9249 230.017 31.8336 227.259 41.9483L193.737 161.943C186.136 159.625 178.745 155.139 172.192 147.497C170.096 145.052 168.421 142.599 167.122 140.169C166.27 137.546 166 135.458 166 132.84C166 120.825 175.542 111.041 187.462 110.647C187.334 111.611 187.268 112.594 187.268 113.592C187.268 120.339 190.277 126.383 195.025 130.456L195.122 128.416L195.151 128.483L218.155 43.8792C219.81 37.9942 220.637 32.9363 220.637 28.7065C220.637 15.8334 213.466 9.39665 199.122 9.39645C198.754 9.39645 198.57 8.84503 198.569 7.74199C198.569 6.63896 198.753 6.087 199.121 6.08659L214.569 6.3615Z" fill="black"/>
</svg>
